<svg width="310" height="400" viewBox="0 0 310 400" fill="none" xmlns="http://www.w3.org/2000/svg">
<circle cx="159.09" cy="250" r="150" fill="#F3669A"/>
<path d="M265.043 172.727C265.043 175.705 267.373 177.853 268.417 180.856C268.946 182.377 269.736 184.464 271.208 185.722C272.067 186.457 267.606 185.474 268.183 186.363C268.976 187.583 266.971 190.441 265.043 190.908C260.834 191.928 263.553 194.844 260.17 196.852C258.439 197.88 256.708 199.495 254.547 199.999" stroke="#FDE3CA" stroke-width="18.1818" stroke-linecap="round"/>
<circle cx="159.093" cy="177.272" r="90.9091" fill="#FDE3CA" stroke="#FDE3CA" stroke-width="9.09091"/>
<ellipse cx="109.092" cy="227.273" rx="18.1818" ry="9.09091" fill="#FDC2C7"/>
<ellipse cx="190.914" cy="227.273" rx="18.1818" ry="9.09091" fill="#FDC2C7"/>
<path d="M76.6358 85.03C57.7335 103.932 37.6188 114.464 24.2351 101.081C10.8514 87.697 15.3251 61.524 34.2275 42.6217C53.1298 23.7194 79.3028 19.2456 92.6865 32.6293C106.07 46.013 95.5381 66.1277 76.6358 85.03Z" fill="#252323"/>
<path d="M227.04 76.8784C207.47 58.6677 196.222 38.9447 209.116 25.0885C222.01 11.2324 248.327 14.7624 267.896 32.973C287.466 51.1837 292.877 77.1789 279.983 91.0351C267.09 104.891 246.609 95.089 227.04 76.8784Z" fill="#252323"/>
<path d="M180.598 198.917C189.697 208.475 197.943 209.015 220.308 199.046" stroke="#252323" stroke-width="9.09091"/>
<path d="M128.18 241.861C137.279 251.419 145.525 251.959 167.89 241.991" stroke="#252323" stroke-width="9.09091"/>
<path d="M82.3601 197.911C89.1732 204.51 94.9621 206.049 110.121 203.973" stroke="#252323" stroke-width="9.09091"/>
<path d="M198.648 318.18C191.517 315.097 183.961 311.822 175.389 308.093C175.484 308.021 173.736 309.647 172.107 311.176C164.716 306.085 171.705 291.958 191.068 272.261C159.332 282.468 130.737 277.424 102.496 259.544C108.541 271.257 114.846 281.082 118.718 291.814C121.269 298.842 128.872 307.949 117.16 314.571C106.558 320.571 91.3277 318.874 84.8814 309.671C74.9876 295.567 66.2037 280.675 55.8377 266.118C61.9062 280.914 67.9746 295.687 74.6098 311.846C48.376 287.225 39.9227 257.584 50.9734 225.099C54.6334 214.318 52.3194 207.147 46.0148 199.187C34.2084 184.247 34.3737 178.845 44.7633 163.475C46.2037 161.348 46.2745 157.81 45.9912 155.037C41.3631 111.891 54.9168 76.1066 87.5968 47.7089C113.028 25.6217 143.488 25.0959 173.618 29.3746C233.358 37.8605 264.291 88.5365 267.479 145.38C267.715 149.73 267.502 154.129 267.502 158.431C286.109 170.168 287.668 188.048 270.761 202.175C265.165 206.836 262.851 211.067 262.874 218.86C263.04 250.676 250.312 276.54 225.141 296.045C216.121 303.049 207.573 310.675 198.624 318.156L198.648 318.18ZM175.649 239.441L175.861 239.489C163.535 231.457 151.28 223.545 151.611 205.832C151.635 204.135 144.905 200.167 143.512 201.004C139.167 203.609 134.421 207.338 132.437 211.832C125.519 227.418 114.326 235.306 97.4906 235.091C94.232 235.043 90.9498 235.091 86.487 235.091C129.604 283.544 198.223 276.827 220.206 241.664C206.298 240.971 190.997 240.206 175.672 239.465L175.649 239.441ZM122.874 170.598C104.267 169.188 86.5106 158.67 66.9121 166.511C69.1789 182.622 70.6665 198.016 73.807 213.075C74.8459 218.095 79.1907 224.477 83.6299 226.342C131.679 246.388 127.277 195.454 129.014 195.076C140.206 194 151.399 192.948 163.158 191.825C162.308 194.335 161.221 197.562 160.135 200.789C157.16 209.585 158.907 217.306 165.59 223.665C179.687 237.099 196.31 238.389 213.972 233.346C229.746 228.852 236.097 217.019 238.128 201.506C238.506 198.566 241.883 196.008 245.401 191.179C241.528 167.778 246.44 173.204 223.559 168.973C210.501 166.559 196.806 166.63 183.441 167.18C164.362 167.945 162.945 167.658 155.602 149.754C154.043 145.953 152.414 142.201 150.808 138.424C150.312 143.061 151.328 147.22 152.721 151.236C154.232 155.611 156.097 159.842 158.884 166.845C149.816 167.443 140.985 170.646 135.153 167.73C128.754 164.527 125.118 155.658 120.041 148.989C120.891 155.443 121.812 162.256 122.922 170.622L122.874 170.598ZM264.409 186.136C260.702 190.797 256.192 196.462 251.682 202.127C252.65 203.012 253.642 203.896 254.61 204.781C259.687 200.574 266.275 197.299 269.368 191.92C272.272 186.877 272.107 179.61 271.894 173.371C271.824 171.65 266.841 169.164 263.961 168.901C262.709 168.782 259.71 173.538 259.876 175.905C260.112 179.204 262.591 182.311 264.409 186.16V186.136Z" fill="#252323"/>
<path d="M154.544 327.273C214.793 327.273 263.635 335.489 263.635 358.442C263.635 381.394 214.793 400 154.544 400C94.2948 400 45.4531 381.394 45.4531 358.442C45.4531 335.489 94.2948 327.273 154.544 327.273Z" fill="#420018"/>
<path d="M150.001 327.273C192.678 327.273 227.274 331.381 227.274 342.857C227.274 354.333 192.678 363.636 150.001 363.636C107.325 363.636 72.7285 354.333 72.7285 342.857C72.7285 331.381 107.325 327.273 150.001 327.273Z" fill="#F8E1E9"/>
<path d="M273.399 318.635C275.849 318.087 277.39 315.656 276.842 313.207C276.293 310.757 273.862 309.216 271.413 309.764L273.399 318.635ZM271.413 309.764L153.555 336.153L155.541 345.024L273.399 318.635L271.413 309.764Z" fill="#252323"/>
<path d="M277.502 347.67C280.012 347.616 282.003 345.538 281.949 343.028C281.895 340.519 279.816 338.528 277.307 338.582L277.502 347.67ZM277.307 338.582L156.559 341.174L156.754 350.263L277.502 347.67L277.307 338.582Z" fill="#252323"/>
</svg>
