<svg width="221" height="200" viewBox="0 0 221 200" fill="none" xmlns="http://www.w3.org/2000/svg">
<path d="M220.782 131.527C220.782 186.755 155.446 200 100.218 200C44.9893 200 0.217773 155.228 0.217773 100C0.217773 44.7715 44.9893 0 100.218 0C155.446 0 220.782 76.2983 220.782 131.527Z" fill="#E30E5C"/>
<path d="M187.535 106.059C187.51 124.944 177.904 136.454 148.248 153.311C153.057 158.784 148.648 160.888 144.478 162.416C130.727 167.45 116.35 168.715 101.935 167.325C92.4918 166.411 83.1366 164.106 73.894 161.827C69.7111 160.8 66.8556 157.957 70.9885 153.348C50.4871 143.642 32.9037 131.895 30.8623 106.234C70.2245 119.447 154.059 119.296 187.535 106.059Z" fill="#F8E1E9"/>
<path d="M142.875 88.7511C152.956 90.2163 161.999 91.3685 170.978 92.9089C175.061 93.6103 179.119 94.775 182.963 96.3029C184.817 97.0418 186.132 99.1082 187.697 100.561C186.007 101.951 184.516 104.093 182.588 104.581C174.535 106.648 166.432 108.952 158.216 109.866C121.196 113.949 84.1758 114.174 47.3308 107.775C43.0602 107.036 38.8647 105.608 34.807 104.055C33.3042 103.479 31.3254 101.638 31.3379 100.373C31.3379 99.0957 33.3418 97.0418 34.807 96.6911C44.2875 94.3868 53.768 91.4812 63.4114 90.592C80.4061 89.0391 97.5387 88.989 114.571 87.8368C117.89 87.6114 121.822 86.0334 124.202 83.7541C141.973 66.7718 159.419 49.464 177.303 31.9307C178.254 32.9451 179.607 34.3853 181.298 36.1762C162.888 53.2962 144.753 70.1658 126.118 87.4861C131.716 89.3397 136.062 89.1894 140.833 85.6702C161.973 70.0906 183.402 54.8868 205.181 39.207C206.42 40.8351 207.623 42.4131 209.088 44.3292C187.046 59.1073 165.38 73.6348 142.875 88.7385V88.7511ZM180.171 101.863C180.258 101.162 180.346 100.461 180.434 99.7595C178.367 99.1082 176.351 98.1689 174.247 97.8433C164.578 96.3405 154.822 95.2759 145.204 93.5351C139.193 92.4456 134.334 93.7981 129.587 97.5177C125.504 100.724 120.87 103.229 116.475 106.046C116.049 105.458 115.636 104.857 115.21 104.268C119.919 100.736 124.64 97.2046 129.512 93.5477C118.792 88.9139 115.548 99.9473 108.084 102.051C108.672 100.235 109.724 98.9454 110.826 97.7056C112.166 96.2027 113.544 94.7374 115.873 92.2201C88.8096 92.3955 63.1358 92.4581 38.2636 100.786C85.6411 110.743 132.931 111.093 180.183 101.851L180.171 101.863Z" fill="#F8E1E9"/>
</svg>
