<svg width="1440" height="1024" viewBox="0 0 1440 1024" fill="none" xmlns="http://www.w3.org/2000/svg">
<g clip-path="url(#clip0_583_1371)">
<rect width="1440" height="1024" fill="#F8E1E9"/>
<path opacity="0.25" d="M-148 462.105C-146.414 453.984 -139.012 446.555 -133.324 440.087C-107.028 410.186 -79.4949 380.092 -50.1578 352.013C11.9988 292.523 86.6115 240.889 161.95 192.105C233.179 145.983 307.875 100.951 389.433 66.6007C448.282 41.8149 512.885 17.0712 578.828 6.6007C599.509 3.31688 635.438 -2.71416 657.101 1.37134C674.385 4.63086 662.36 52.2954 661.644 56.4172C650.868 118.482 624.438 177.541 601.541 237.243C521.53 445.867 444.029 655.314 376.504 866.692C346.802 959.669 319.585 1057.51 323.739 1154.03C327.411 1239.34 459.276 1103.21 469.105 1093.21C550.29 1010.58 622.227 922.382 695.889 835.591C798.264 714.97 900.138 594.149 998.501 471.463C1061.38 393.04 1122.31 313.656 1187.55 236.417C1223.03 194.399 1258.38 150.459 1301.46 112.839C1309.78 105.573 1350.53 64.8565 1370.3 73.7566C1390.56 82.8761 1380.67 144.407 1380.43 158.802C1379.78 199.713 1376.61 240.705 1367.16 281.004C1355.19 332.001 1334 381.655 1318.93 432.105C1286.64 540.234 1271.89 649.7 1270.36 760.729C1269.92 793.194 1262.49 847.374 1311.95 860.912C1373.21 877.684 1423.01 863.122 1473.73 835.316C1512.49 814.074 1550.73 792.091 1588 769.261" stroke="#FFC0CF" stroke-width="200" stroke-linecap="round"/>
</g>
<defs>
<clipPath id="clip0_583_1371">
<rect width="1440" height="1024" fill="white"/>
</clipPath>
</defs>
</svg>
