<svg width="1938" height="1382" viewBox="0 0 1938 1382" fill="none" xmlns="http://www.w3.org/2000/svg">
<path opacity="0.25" d="M101 562.105C102.586 553.984 109.988 546.555 115.676 540.087C141.972 510.186 169.505 480.092 198.842 452.013C260.999 392.523 335.612 340.889 410.95 292.105C482.179 245.983 556.875 200.951 638.433 166.601C697.282 141.815 761.885 117.071 827.828 106.601C848.509 103.317 884.438 97.2858 906.101 101.371C923.385 104.631 911.36 152.295 910.644 156.417C899.868 218.482 873.438 277.541 850.541 337.243C770.53 545.867 693.029 755.314 625.504 966.692C595.802 1059.67 568.585 1157.51 572.739 1254.03C576.411 1339.34 708.276 1203.21 718.105 1193.21C799.29 1110.58 871.227 1022.38 944.889 935.591C1047.26 814.97 1149.14 694.149 1247.5 571.463C1310.38 493.04 1371.31 413.656 1436.55 336.417C1472.03 294.399 1507.38 250.459 1550.46 212.839C1558.78 205.573 1599.53 164.856 1619.3 173.757C1639.56 182.876 1629.67 244.407 1629.43 258.802C1628.78 299.713 1625.61 340.705 1616.16 381.004C1604.19 432.001 1583 481.655 1567.93 532.105C1535.64 640.234 1520.89 749.7 1519.36 860.729C1518.92 893.194 1511.49 947.374 1560.95 960.912C1622.21 977.684 1672.01 963.122 1722.73 935.316C1761.49 914.074 1799.73 892.091 1837 869.261" stroke="#FFC0CF" stroke-width="200" stroke-linecap="round"/>
</svg>
