<svg width="125" height="40" viewBox="0 0 125 40" fill="none" xmlns="http://www.w3.org/2000/svg">
<path d="M1.015 16V5.4825H5.11V7.845C6.4225 6.235 8.225 5.1325 11.13 5.1325C14.2625 5.1325 16.3975 6.4975 16.3975 10.365V16H12.3025V11.905C12.3025 9.5775 11.515 8.4925 9.0825 8.4925C6.5275 8.4925 5.11 9.6125 5.11 11.8525V16H1.015ZM33.7266 5.4825V16H29.6316V13.6375C28.3191 15.2475 26.5166 16.35 23.6116 16.35C20.4791 16.35 18.3441 14.985 18.3441 11.1175V5.4825H22.4391V9.5775C22.4391 11.905 23.2266 12.99 25.6591 12.99C28.2141 12.99 29.6316 11.87 29.6316 9.63V5.4825H33.7266ZM51.0557 5.4825V16H46.9607V13.6375C45.6482 15.2475 43.8457 16.35 40.9407 16.35C37.8082 16.35 35.6732 14.985 35.6732 11.1175V5.4825H39.7682V9.5775C39.7682 11.905 40.5557 12.99 42.9882 12.99C45.5432 12.99 46.9607 11.87 46.9607 9.63V5.4825H51.0557ZM68.3848 5.4825V16H64.2898V13.6375C62.9773 15.2475 61.1748 16.35 58.2698 16.35C55.1373 16.35 53.0023 14.985 53.0023 11.1175V5.4825H57.0973V9.5775C57.0973 11.905 57.8848 12.99 60.3173 12.99C62.8723 12.99 64.2898 11.87 64.2898 9.63V5.4825H68.3848ZM81.168 16V13.9525C80.153 15.475 78.3505 16.3675 76.058 16.3675C72.278 16.3675 69.828 14.18 69.828 10.7675C69.828 7.3725 72.278 5.15 76.058 5.15C78.3505 5.15 80.153 6.0425 81.168 7.5825V2H85.228V16H81.168ZM74.063 10.7675C74.063 12.1325 75.3055 13.0075 77.4405 13.0075C79.768 13.0075 81.168 12.1325 81.168 10.7675C81.168 9.4025 79.768 8.51 77.4405 8.51C75.3055 8.51 74.063 9.4025 74.063 10.7675ZM87.2849 16V2H91.3274V16H87.2849ZM100.701 16.35C96.0106 16.35 93.0181 14.1625 93.0356 10.75C93.0356 7.3025 96.0281 5.1325 100.683 5.1325C105.583 5.1325 108.418 7.355 108.418 11.555H97.2006C97.5506 12.92 98.8806 13.5325 100.946 13.5325C102.608 13.5325 103.956 13.06 104.376 12.2725H108.331C107.491 14.985 105.198 16.3675 100.701 16.35ZM97.2881 9.6125H104.236C103.763 8.4225 102.591 7.95 100.841 7.95C98.9331 7.95 97.7256 8.4575 97.2881 9.6125ZM116.946 16.35C112.361 16.35 109.578 15.3 109.596 12.5H113.831C113.831 13.2525 114.426 13.7075 116.876 13.7075C119.063 13.7075 119.606 13.3925 119.606 12.7975C119.606 12.1675 118.993 11.9925 116.823 11.8175L115.913 11.7475C111.783 11.415 109.841 10.9425 109.841 8.6325C109.841 5.92 112.816 5.1325 116.596 5.1325C120.393 5.1325 123.228 6.095 123.403 8.6675H119.168C119.151 7.9675 118.363 7.6175 116.508 7.6175C114.688 7.6175 114.006 7.915 114.006 8.3875C114.006 8.895 114.478 9.07 116.543 9.2275L117.628 9.315C121.618 9.63 123.771 10.05 123.771 12.605C123.771 15.5625 121.006 16.35 116.946 16.35ZM7.2275 36.35C3.22 36.35 1.015 35.1075 1.015 32.8325C1.015 31.345 1.9775 30.3475 4.515 29.49C3.325 28.5275 2.8525 27.7225 2.8525 26.7075C2.8525 24.6775 4.8825 23.4 8.12 23.4C11.165 23.4 13.16 24.625 13.16 26.48C13.16 27.915 12.005 28.93 9.52 29.63L12.775 31.87C13.23 31.205 13.5275 30.365 13.685 29.2975H16.8175C16.6425 30.9775 16.0475 32.3775 15.1025 33.48L18.7425 36H13.8775L12.775 35.23C11.2875 35.965 9.4325 36.35 7.2275 36.35ZM5.075 32.2375C5.075 33.2525 6.125 33.7425 8.1725 33.7425C8.9775 33.7425 9.6775 33.6725 10.29 33.515L6.1775 30.645C5.46 31.0825 5.075 31.6075 5.075 32.2375ZM6.545 26.97C6.545 27.425 6.825 27.775 7.63 28.3175L7.945 28.5275C9.45 28.09 10.0275 27.6175 10.0275 26.9175C10.0275 26.2525 9.38 25.8325 8.33 25.8325C7.2275 25.8325 6.545 26.2875 6.545 26.97ZM38.6143 36V33.9525C37.5993 35.475 35.7968 36.3675 33.5043 36.3675C29.7243 36.3675 27.2743 34.18 27.2743 30.7675C27.2743 27.3725 29.7243 25.15 33.5043 25.15C35.7968 25.15 37.5993 26.0425 38.6143 27.5825V22H42.6743V36H38.6143ZM31.5093 30.7675C31.5093 32.1325 32.7518 33.0075 34.8868 33.0075C37.2143 33.0075 38.6143 32.1325 38.6143 30.7675C38.6143 29.4025 37.2143 28.51 34.8868 28.51C32.7518 28.51 31.5093 29.4025 31.5093 30.7675ZM44.7141 36V25.4825H48.7566V27.775C49.8241 25.8675 51.1541 25.1325 53.0091 25.1325C53.9891 25.1325 54.7066 25.29 55.5641 25.6575V29.175C54.4091 28.755 53.7091 28.65 52.8516 28.65C51.6791 28.65 50.1566 28.9825 48.7566 30.855V36H44.7141ZM57.2923 36V25.4825H61.3348V36H57.2923ZM57.2923 24.415V22H61.3348V24.415H57.2923ZM63.3588 36V25.4825H67.4538V27.845C68.7663 26.235 70.5688 25.1325 73.4738 25.1325C76.6063 25.1325 78.7413 26.4975 78.7413 30.365V36H74.6463V31.905C74.6463 29.5775 73.8588 28.4925 71.4263 28.4925C68.8713 28.4925 67.4538 29.6125 67.4538 31.8525V36H63.3588ZM80.8079 36V22H84.8504V29.3325L89.9954 25.4825H96.0504L90.1704 29.77L96.0504 36H91.0979L87.3529 31.8175L84.8504 33.655V36H80.8079ZM103.342 36.35C98.7571 36.35 95.9746 35.3 95.9921 32.5H100.227C100.227 33.2525 100.822 33.7075 103.272 33.7075C105.46 33.7075 106.002 33.3925 106.002 32.7975C106.002 32.1675 105.39 31.9925 103.22 31.8175L102.31 31.7475C98.1796 31.415 96.2371 30.9425 96.2371 28.6325C96.2371 25.92 99.2121 25.1325 102.992 25.1325C106.79 25.1325 109.625 26.095 109.8 28.6675H105.565C105.547 27.9675 104.76 27.6175 102.905 27.6175C101.085 27.6175 100.402 27.915 100.402 28.3875C100.402 28.895 100.875 29.07 102.94 29.2275L104.025 29.315C108.015 29.63 110.167 30.05 110.167 32.605C110.167 35.5625 107.402 36.35 103.342 36.35ZM111.672 36V32.815H115.942V36H111.672Z" fill="#F8F8F8"/>
</svg>
